# xmcd
#
# Track frame offsets:
#	150
#	19066
#	34973
#	52768
#	73769
#	88444
#	105934
#	123876
#	139780
#
# Disc length: 2112 seconds
#
# Revision: 1
# Processed by: cddbd v1.5.1PL0 Copyright (c) Steve Scherf et al.
# Submitted via: EasyCDDAExtractor 5.1.0
#
DISCID=74083e09
DTITLE=Apocrypha - The Forgotten Scroll
DYEAR=1900
DGENRE=Blues
TTITLE0=Penance (Keep The Faith)
TTITLE1=Lost Children Of Hope
TTITLE2=Holy Wars (Only Lock The Doors)
TTITLE3=Fall Of The Crest
TTITLE4=Tablet Of Destiny
TTITLE5=Look To The Sun
TTITLE6=Riding In The Night
TTITLE7=Distorted Reflections
TTITLE8=Broken Dream
EXTD=
EXTT0=
EXTT1=
EXTT2=
EXTT3=
EXTT4=
EXTT5=
EXTT6=
EXTT7=
EXTT8=
PLAYORDER=
